<?xml version="1.0" standalone="no"?>
<!DOCTYPE svg PUBLIC "-//W3C//DTD SVG 20010904//EN"
 "http://www.w3.org/TR/2001/REC-SVG-20010904/DTD/svg10.dtd">
<svg version="1.0" xmlns="http://www.w3.org/2000/svg"
 width="1024.000000pt" height="1024.000000pt" viewBox="0 0 1024.000000 1024.000000"
 preserveAspectRatio="xMidYMid meet">

<g transform="translate(0.000000,1024.000000) scale(0.100000,-0.100000)"
fill="#000000" stroke="none">
<path d="M1804 9394 c-247 -41 -474 -158 -664 -341 -193 -184 -312 -396 -367
-653 -17 -81 -18 -223 -18 -3265 0 -3004 1 -3185 18 -3262 56 -261 174 -480
352 -658 159 -159 350 -268 572 -328 l118 -32 3255 -3 c2251 -2 3280 1 3337 8
327 43 630 223 839 499 78 104 164 274 199 396 58 200 56 31 52 3445 -3 2867
-4 3141 -19 3200 -67 264 -159 438 -326 612 -173 181 -366 293 -632 367 l-95
26 -3270 2 c-2718 1 -3284 -1 -3351 -13z m6621 -313 c244 -50 468 -197 605
-396 49 -71 108 -203 132 -295 l23 -85 0 -3180 c0 -3078 -1 -3182 -19 -3249
-47 -173 -134 -323 -258 -442 -125 -121 -259 -198 -424 -246 l-79 -23 -3285 0
-3285 0 -88 28 c-178 55 -306 136 -433 270 -130 138 -216 311 -244 492 -7 49
-10 1018 -8 3220 l3 3150 22 76 c85 298 302 534 585 639 58 21 155 46 203 53
17 2 1477 5 3245 5 3100 2 3218 1 3305 -17z"/>
<path d="M2390 7881 c-19 -10 -44 -34 -55 -52 -18 -31 -20 -55 -23 -311 l-3
-278 -173 0 c-163 0 -175 -1 -206 -22 -18 -13 -43 -36 -54 -51 l-21 -28 -3
-2052 -2 -2052 22 -45 c17 -33 35 -51 68 -67 l44 -23 1213 0 1212 0 27 -23
c21 -19 29 -36 36 -88 24 -179 182 -345 368 -388 25 -6 158 -11 295 -11 235 0
254 2 315 23 157 56 266 164 311 308 10 33 19 75 19 93 0 19 9 41 20 54 12 12
22 23 23 24 1 2 556 5 1232 8 l1230 5 37 23 c21 13 45 40 57 66 l21 43 -2
2051 -3 2051 -21 28 c-11 15 -36 38 -54 51 -31 21 -43 22 -206 22 l-174 0 0
279 c0 272 0 279 -23 312 -40 61 -75 71 -212 64 -421 -22 -952 -105 -1300
-204 -526 -149 -925 -351 -1187 -600 l-90 -86 -71 70 c-398 391 -1142 669
-2101 785 -177 21 -402 40 -481 40 -30 0 -64 -7 -85 -19z m345 -306 c505 -40
1132 -184 1520 -349 336 -144 612 -343 703 -509 16 -30 17 -136 20 -1740 l2
-1708 -82 71 c-202 175 -488 325 -827 434 -348 112 -792 200 -1226 241 -93 9
-185 18 -202 21 l-33 5 0 1775 0 1774 23 -4 c12 -3 58 -8 102 -11z m4905
-1760 l0 -1775 -22 -4 c-13 -3 -84 -10 -158 -16 -530 -44 -1093 -165 -1480
-317 -248 -98 -493 -242 -635 -375 l-75 -70 2 1708 3 1709 24 45 c13 25 67 88
120 141 378 375 1162 633 2209 728 9 1 12 -360 12 -1774z m-5328 -423 l3
-1549 29 -37 c39 -52 72 -63 216 -71 654 -35 1321 -179 1730 -372 104 -49 260
-138 260 -149 0 -2 -540 -4 -1200 -4 l-1200 0 0 1865 0 1865 80 0 80 0 2
-1548z m5788 -317 l0 -1865 -1207 0 c-1199 0 -1208 1 -1183 20 41 32 248 135
355 178 391 155 891 264 1410 307 365 30 375 31 403 52 15 11 35 35 44 54 17
32 18 128 18 1577 l0 1542 80 0 80 0 0 -1865z m-2620 -2293 c0 -13 -52 -58
-90 -78 -30 -16 -63 -19 -245 -22 -139 -2 -224 0 -250 8 -50 14 -111 53 -125
80 -11 20 -8 20 350 20 198 0 360 -4 360 -8z"/>
<path d="M3025 6679 c-66 -58 -69 -143 -7 -202 30 -29 58 -37 317 -87 421 -82
902 -231 1081 -336 103 -60 225 -1 226 110 2 74 -24 105 -132 159 -295 147
-763 285 -1247 367 -167 28 -195 27 -238 -11z"/>
<path d="M3054 5916 c-37 -16 -69 -58 -78 -103 -10 -44 23 -117 61 -137 16 -8
121 -33 234 -56 453 -91 827 -203 1088 -326 121 -58 153 -63 207 -38 47 23 74
70 74 132 0 90 -49 126 -325 235 -290 115 -672 218 -1043 282 -164 29 -176 29
-218 11z"/>
<path d="M3045 5122 c-41 -25 -56 -45 -65 -87 -20 -89 36 -155 146 -174 234
-40 651 -144 894 -223 133 -43 302 -109 386 -152 63 -32 126 -34 171 -6 78 47
90 160 24 224 -16 15 -92 54 -172 88 -324 135 -753 256 -1145 323 -178 30
-200 30 -239 7z"/>
<path d="M7040 6699 c-496 -80 -1003 -225 -1291 -370 -42 -21 -88 -52 -102
-69 -61 -72 -38 -173 50 -219 40 -21 91 -12 173 29 264 133 717 264 1170 340
150 25 171 32 210 77 53 59 36 161 -33 203 -35 22 -84 24 -177 9z"/>
<path d="M7035 5914 c-456 -80 -880 -198 -1179 -328 -194 -84 -233 -115 -242
-193 -10 -75 60 -153 135 -153 20 0 65 14 101 31 303 144 717 265 1230 360 70
12 125 28 142 41 87 62 74 203 -22 242 -47 19 -58 19 -165 0z"/>
<path d="M6965 5114 c-530 -93 -1253 -331 -1330 -437 -27 -39 -27 -116 1 -153
62 -84 117 -87 276 -14 233 108 766 263 1118 325 80 14 160 33 178 42 97 49
95 208 -3 249 -45 18 -73 17 -240 -12z"/>
</g>
</svg>
